# xmcd
#
# Track frame offsets:
#	150
#	19169
#	41285
#	67869
#	84428
#	99816
#	119238
#	134612
#	154466
#	167597
#	185616
#	203833
#	231314
#	264168
#
# Disc length: 4406 seconds
#
# Revision: 1
# Processed by: cddbd v1.5.2PL0 Copyright (c) Steve Scherf et al.
# Submitted via: audiograbber 1.81.02
#
DISCID=b911340e
DTITLE=nu company - Thy Kingdom Come
DYEAR=2007
DGENRE=Christian Gangsta Rap
TTITLE0=beautiful day
TTITLE1=his folk
TTITLE2=(don't forget to) lay your burden down
TTITLE3=holding on
TTITLE4=dance of praise
TTITLE5=i am loved
TTITLE6=i know you can
TTITLE7=here and now
TTITLE8=for everybody
TTITLE9=rescue me
TTITLE10=fly
TTITLE11=you bore our griefs
TTITLE12=thy kingdom come
TTITLE13=Daten-CD
EXTD=www.gerth.de - Art.-Nr. 939351
EXTT0=
EXTT1=
EXTT2=
EXTT3=
EXTT4=
EXTT5=
EXTT6=
EXTT7=
EXTT8=
EXTT9=
EXTT10=
EXTT11=
EXTT12=
EXTT13=
PLAYORDER=
